<?xml version="1.0" encoding="utf-8"?><svg xmlns="http://www.w3.org/2000/svg" xmlns:xlink="http://www.w3.org/1999/xlink"><symbol viewBox="0 0 16 16" id="arrow-down" xmlns="http://www.w3.org/2000/svg"><path d="M2.667 5.333 7.293 9.96a1 1 0 0 0 1.414 0l4.627-4.627"/></symbol><symbol viewBox="0 0 13 13" id="arrow-left" xmlns="http://www.w3.org/2000/svg"><path d="M1.6 6.3h10.8m-10.8 0L6.7.9M1.6 6.3l5.1 5.4"/></symbol><symbol viewBox="0 0 22 24" id="basket" xmlns="http://www.w3.org/2000/svg"><g clip-path="url(#ca)"><path d="M10.363 18.443a2.046 2.046 0 0 0-2.045 2.042 2.046 2.046 0 0 0 4.09 0 2.046 2.046 0 0 0-2.045-2.042Zm6.134 0a2.046 2.046 0 0 0-2.045 2.042 2.046 2.046 0 0 0 4.089 0 2.046 2.046 0 0 0-2.044-2.042Zm3.978-8.199L7.413 6.891a.614.614 0 0 0-.75.73L8.67 16.4h-.786L5.482 5.895a.613.613 0 0 0-.474-.464l-4.27-.882A.614.614 0 0 0 .489 5.75l3.885.802L6.797 17.15a.613.613 0 0 0 .598.477h12.07a.615.615 0 0 0 .607-.53l.858-6.175a.613.613 0 0 0-.455-.678Zm-8.14 3.91a.613.613 0 0 1-1.227 0v-2.696a.613.613 0 0 1 1.227 0v2.696Zm2.625 0a.613.613 0 0 1-1.227 0v-1.88a.613.613 0 0 1 1.227 0v1.88Zm2.625 0a.613.613 0 0 1-1.227 0v-1.226a.613.613 0 0 1 1.227 0v1.226Z"/></g><path fill-rule="evenodd" clip-rule="evenodd" d="M16.268 4.568a2.996 2.996 0 0 0-1.693-.523c-.627 0-1.21.193-1.693.523-.28-.843-.492-1.752-.492-2.383C12.39.98 13.37 0 14.575 0s2.185.98 2.185 2.185c0 .631-.212 1.54-.492 2.383Zm-4.722 2.274.024.006v-.011l-.024.005Zm4.972 1.217c-1.333-.33-2.766-.681-4.129-1.013a2.185 2.185 0 1 1 4.129 1.013Zm4.436 1.103c-.866-.217-2.155-.538-3.618-.9a2.995 2.995 0 0 0 .243-1.425c.87.18 1.762.45 2.308.765.596.344.969.928 1.067 1.56ZM9.869 6.439c-.36-.086-.706-.167-1.03-.243a2.19 2.19 0 0 1-.376-2.667 2.188 2.188 0 0 1 3.147-.7c.098.738.338 1.599.61 2.353a3.01 3.01 0 0 0-.449.774c-.628.113-1.305.278-1.902.483Zm10.124.075a3.43 3.43 0 0 1-.217.114c-.696-.295-1.587-.526-2.397-.672a3.01 3.01 0 0 0-.449-.774c.262-.727.494-1.553.599-2.273.095-.067.189-.128.278-.18a2.188 2.188 0 0 1 2.986.8 2.188 2.188 0 0 1-.8 2.985Z"/><defs><clipPath id="ca"><path transform="translate(0 3.064)" d="M0 0h20.936v20.936H0z"/></clipPath></defs></symbol><symbol viewBox="0 0 344.96 344.96" id="check" xmlns="http://www.w3.org/2000/svg"><g data-name="Слой 2"><path class="dcls-1" d="m321.85 86.24-40-23.11-23.1-40H212.5L172.48 0l-40 23.11H86.24l-23.11 40-40 23.1v46.21L0 172.48l23.11 40v46.21l40 23.11 23.11 40h46.21l40 23.1 40-23.11h46.21l23.11-40 40-23.11V212.5l23.11-40-23.11-40V86.24ZM156.91 243.07a16.79 16.79 0 0 1-23.34 0l-50.45-50.44a16.19 16.19 0 0 1 0-22.89l13.35-13.35a16.19 16.19 0 0 1 22.89 0l25.87 25.87 80.34-80.35a16.19 16.19 0 0 1 22.89 0l13.35 13.35a16.19 16.19 0 0 1 0 22.89Z" data-name="Capa 1"/></g></symbol><symbol viewBox="0 0 16 16" id="desktop" xmlns="http://www.w3.org/2000/svg"><path d="M5.334 10a.667.667 0 1 0 0 1.333.667.667 0 0 0 0-1.333Zm2 .667a.667.667 0 1 1 1.333 0 .667.667 0 0 1-1.333 0ZM10.667 10a.667.667 0 1 0 0 1.333.667.667 0 0 0 0-1.333Z"/><path fill-rule="evenodd" clip-rule="evenodd" d="M2.667 2a2 2 0 0 0-2 2v8a2 2 0 0 0 2 2h10.667a2 2 0 0 0 2-2V4a2 2 0 0 0-2-2H2.667Zm10.667 1.333H2.667A.667.667 0 0 0 2 4v.667h12V4a.667.667 0 0 0-.666-.667ZM2 12V6h12v6a.667.667 0 0 1-.666.667H2.667A.667.667 0 0 1 2 12Z"/></symbol><symbol viewBox="0 0 24 24" id="exit" xmlns="http://www.w3.org/2000/svg"><path d="m12.052 14.829 1.414 1.414L17.71 12l-4.243-4.243-1.414 1.415L13.88 11H6.343v2h7.537l-1.828 1.829Z"/><path fill-rule="evenodd" clip-rule="evenodd" d="M1 19a4 4 0 0 0 4 4h14a4 4 0 0 0 4-4V5a4 4 0 0 0-4-4H5a4 4 0 0 0-4 4v14Zm4 2h14a2 2 0 0 0 2-2V5a2 2 0 0 0-2-2H5a2 2 0 0 0-2 2v14a2 2 0 0 0 2 2Z"/></symbol><symbol viewBox="0 0 24 24" id="fb" xmlns="http://www.w3.org/2000/svg"><path d="M13.397 20.997v-8.196h2.765l.411-3.209h-3.176V7.548c0-.926.258-1.56 1.587-1.56h1.684v-2.86A22.108 22.108 0 0 0 14.201 3c-2.444 0-4.122 1.492-4.122 4.231v2.355H7.332v3.21h2.753v8.201h3.312Z"/></symbol><symbol viewBox="0 0 24 24" id="instagram" xmlns="http://www.w3.org/2000/svg"><path d="M11.999 7.377a4.624 4.624 0 1 0 0 9.248 4.624 4.624 0 0 0 0-9.248Zm0 7.627a3.004 3.004 0 1 1 0-6.008 3.004 3.004 0 0 1 0 6.008Zm4.807-6.719a1.078 1.078 0 1 0 0-2.156 1.078 1.078 0 0 0 0 2.156Z"/><path d="M20.533 6.11A4.605 4.605 0 0 0 17.9 3.48a6.607 6.607 0 0 0-2.186-.42c-.963-.042-1.268-.054-3.71-.054s-2.755 0-3.71.054a6.554 6.554 0 0 0-2.184.42 4.6 4.6 0 0 0-2.633 2.63 6.585 6.585 0 0 0-.419 2.186c-.043.962-.056 1.267-.056 3.71 0 2.442 0 2.753.056 3.71.015.748.156 1.486.419 2.187a4.61 4.61 0 0 0 2.634 2.632 6.583 6.583 0 0 0 2.185.45c.963.042 1.268.055 3.71.055s2.755 0 3.71-.055a6.616 6.616 0 0 0 2.186-.42 4.613 4.613 0 0 0 2.633-2.632c.263-.7.404-1.438.419-2.186.043-.962.056-1.267.056-3.71s0-2.753-.056-3.71a6.583 6.583 0 0 0-.421-2.217Zm-1.218 9.533a5.046 5.046 0 0 1-.311 1.688 2.987 2.987 0 0 1-1.712 1.71c-.535.2-1.1.305-1.67.312-.95.044-1.218.055-3.654.055-2.438 0-2.687 0-3.655-.055a4.961 4.961 0 0 1-1.67-.311 2.984 2.984 0 0 1-1.718-1.711 5.08 5.08 0 0 1-.311-1.67c-.043-.95-.053-1.217-.053-3.653 0-2.437 0-2.686.053-3.655a5.038 5.038 0 0 1 .311-1.687c.305-.79.93-1.41 1.719-1.712a5.01 5.01 0 0 1 1.669-.311c.95-.043 1.218-.055 3.655-.055s2.687 0 3.654.055a4.96 4.96 0 0 1 1.67.31 2.99 2.99 0 0 1 1.712 1.713 5.06 5.06 0 0 1 .311 1.669c.043.95.054 1.218.054 3.655 0 2.436 0 2.698-.043 3.654h-.011v-.001Z"/></symbol><symbol viewBox="0 0 144 21" id="logo" xmlns="http://www.w3.org/2000/svg"><g clip-path="url(#ia)"><path d="M5.69 3.668c3.094 0 5.578 2.359 5.578 5.556 0 3.144-2.535 5.555-5.425 5.555-1.37 0-2.688-.42-3.651-1.573h-.101v8.071H.01V10.062c0-3.878 2.181-6.394 5.68-6.394Zm-.05 9.224c2.028 0 3.448-1.677 3.448-3.72 0-1.992-1.37-3.67-3.448-3.67-2.079 0-3.499 1.625-3.499 3.67 0 2.043 1.47 3.72 3.499 3.72Zm7.555-3.668c0-3.197 2.586-5.556 5.628-5.556 3.043 0 5.629 2.359 5.629 5.556 0 3.196-2.586 5.555-5.629 5.555-3.042 0-5.628-2.359-5.628-5.555Zm5.628 3.668c2.08 0 3.448-1.625 3.448-3.668 0-2.044-1.42-3.669-3.448-3.669s-3.447 1.625-3.447 3.669c0 2.043 1.369 3.668 3.447 3.668Zm13.235 1.887c-3.245 0-5.68-2.359-5.68-5.555 0-3.197 2.384-5.556 5.63-5.556 2.484 0 4.765 1.363 5.374 4.036h-2.13c-.507-1.415-1.775-2.149-3.194-2.149-2.18 0-3.499 1.677-3.499 3.72 0 2.045 1.37 3.67 3.55 3.67 1.42 0 2.687-.682 3.194-2.202h2.13c-.761 2.726-2.992 4.036-5.375 4.036Zm13.029-1.52L41.69 5.922h-.05v8.647h-1.978V3.878h3.144l3.346 7.284h.051l3.346-7.284h3.144v10.638h-1.977V5.922h-.051l-3.397 7.337h-2.18Zm9.837-4.035c0-3.197 2.586-5.556 5.628-5.556 3.042 0 5.628 2.359 5.628 5.556 0 3.196-2.586 5.555-5.628 5.555-3.042 0-5.628-2.359-5.628-5.555Zm5.679 3.668c2.079 0 3.448-1.625 3.448-3.668 0-2.044-1.42-3.669-3.448-3.669-2.08 0-3.448 1.625-3.448 3.669-.05 2.043 1.369 3.668 3.448 3.668Zm6.643 1.729v-2.2h.05c.406 0 .863-.158 1.167-.525.406-.419.558-1.258.76-2.41l.305-1.73c.355-1.939 1.014-3.93 3.853-3.93h4.006v10.69h-2.079V5.818h-1.623c-1.622 0-1.926.472-2.332 2.725l-.253 1.572c-.254 1.468-.609 2.726-1.319 3.512-.557.629-1.318.943-2.383.943h-.152v.052Zm12.473-5.397c0-3.197 2.586-5.556 5.628-5.556 3.042 0 5.628 2.359 5.628 5.556 0 3.196-2.586 5.555-5.628 5.555-3.042 0-5.628-2.359-5.628-5.555Zm5.628 3.668c2.079 0 3.448-1.625 3.448-3.668 0-2.044-1.42-3.669-3.448-3.669-2.079 0-3.448 1.625-3.448 3.669 0 2.043 1.42 3.668 3.448 3.668Zm8.063 4.245h-1.978v-4.56h1.318c.608-.68.913-1.729 1.166-2.934l.457-1.992c.405-1.886 1.216-3.825 3.752-3.825h4.005v8.752h1.471v4.559h-1.978v-2.568h-8.265v2.568h.051Zm6.692-4.507V5.817h-1.927c-1.267 0-1.673 1.048-1.926 2.149l-.457 2.044c-.253 1.153-.608 2.096-1.014 2.463v.157h5.324Zm10.698 2.149c-3.296 0-5.679-2.359-5.679-5.555 0-3.197 2.383-5.556 5.578-5.556 2.484 0 5.425 1.677 5.425 5.713V9.8h-8.975c.203 1.782 1.572 3.092 3.6 3.092 1.217 0 2.637-.472 3.043-1.52h2.129c-.608 2.358-2.991 3.407-5.121 3.407ZM107.251 0h2.129v2.201h-2.129V0Zm6.794 8.175c-.304-1.624-1.521-2.672-3.346-2.672-1.775 0-3.043 1.153-3.398 2.672h6.744ZM111.865 0h2.129v2.201h-2.129V0Zm14.046 3.878v4.245h1.724l2.433-4.245h2.282l-3.042 5.083 3.245 5.555h-2.332l-2.586-4.507h-1.775v4.507h-1.927V10.01h-1.724l-2.586 4.507h-2.332l3.245-5.555-3.042-5.083h2.282l2.433 4.245h1.724V3.878h1.978Zm8.112 5.869-.05-5.87h2.079v3.04h.05c.862-1.1 1.978-1.624 3.296-1.624 2.535 0 4.563 1.939 4.563 4.664 0 2.778-2.078 4.821-4.969 4.821-2.839 0-4.969-2.096-4.969-5.03Zm4.969 3.145c1.623 0 2.84-1.205 2.84-2.83s-1.217-2.882-2.84-2.882c-1.622 0-2.788 1.205-2.788 2.882s1.166 2.83 2.788 2.83Z"/></g><defs><clipPath id="ia"><path d="M0 0h144v21H0z"/></clipPath></defs></symbol><symbol viewBox="0 0 16 16" id="ok" xmlns="http://www.w3.org/2000/svg"><g clip-path="url(#ja)"><path d="M16 2 5 13 0 8"/></g><defs><clipPath id="ja"><path d="M0 0h16v16H0z"/></clipPath></defs></symbol><symbol viewBox="0 0 16 16" id="organisation" xmlns="http://www.w3.org/2000/svg"><path d="M11.334 10h1.333v1.333h-1.333V10Zm1.333-2.667h-1.333v1.334h1.333V7.333Z"/><path fill-rule="evenodd" clip-rule="evenodd" d="M8.667 4.667h6.667V14H.667V2h8v2.667ZM5.334 3.333h2v1.334h-2V3.333Zm2 9.334v-1.334h-2v1.334h2Zm0-2.667V8.667h-2V10h2Zm0-2.667V6h-2v1.333h2ZM14 12.667V6H8.667v1.333H10v1.334H8.667V10H10v1.333H8.667v1.334H14Zm-12 0v-1.334h2v1.334H2ZM2 10h2V8.667H2V10Zm2-2.667V6H2v1.333h2ZM2 4.667h2V3.333H2v1.334Z"/></symbol><symbol viewBox="0 0 16 16" id="redo" xmlns="http://www.w3.org/2000/svg"><path d="m8.764 7.367-.117-1.329L10.23 5.9a3.333 3.333 0 1 0 .546 4.115l1.336.334a4.667 4.667 0 1 1-.877-5.331l-.163-1.869 1.328-.116.348 3.985-3.984.349Z"/></symbol><symbol viewBox="0 0 16 16" id="screen" xmlns="http://www.w3.org/2000/svg"><path fill-rule="evenodd" clip-rule="evenodd" d="M8.666 11.333h4.667a2 2 0 0 0 2-2V4a2 2 0 0 0-2-2H2.666a2 2 0 0 0-2 2v5.333a2 2 0 0 0 2 2h4.667v1.334h-2a.667.667 0 1 0 0 1.333h5.333a.667.667 0 0 0 0-1.333h-2v-1.334Zm4.667-8H2.666A.667.667 0 0 0 2 4v5.333c0 .369.298.667.666.667h10.667A.667.667 0 0 0 14 9.333V4a.667.667 0 0 0-.667-.667Z"/></symbol><symbol viewBox="0 0 16 16" id="telegram" xmlns="http://www.w3.org/2000/svg"><path d="m14.629 3.698-2.012 9.618c-.152.679-.548.848-1.11.528l-3.066-2.29-1.48 1.442c-.163.166-.3.305-.616.305l.22-3.165 5.683-5.204c.247-.223-.054-.347-.384-.123L4.839 9.29l-3.024-.959c-.658-.208-.67-.667.137-.986L13.78 2.727c.548-.208 1.027.124.849.971Z"/></symbol><symbol viewBox="0 0 16 16" id="user" xmlns="http://www.w3.org/2000/svg"><path fill-rule="evenodd" clip-rule="evenodd" d="M5.333 4.667a2.667 2.667 0 1 0 5.334 0 2.667 2.667 0 0 0-5.334 0Zm1.334 0a1.333 1.333 0 1 0 2.666 0 1.333 1.333 0 0 0-2.666 0Z"/><path d="M5.333 10c0-.368.299-.667.667-.667h4c.368 0 .667.299.667.667v4H12v-4a2 2 0 0 0-2-2H6a2 2 0 0 0-2 2v4h1.333v-4Z"/></symbol><symbol viewBox="0 0 16 16" id="users" xmlns="http://www.w3.org/2000/svg"><path fill-rule="evenodd" clip-rule="evenodd" d="M3.333 4.667a2.667 2.667 0 1 0 5.334 0 2.667 2.667 0 0 0-5.334 0Zm1.334 0a1.333 1.333 0 1 0 2.666 0 1.333 1.333 0 0 0-2.666 0Z"/><path d="M3.333 10c0-.368.299-.667.667-.667h4c.368 0 .667.299.667.667v4H10v-4a2 2 0 0 0-2-2H4a2 2 0 0 0-2 2v4h1.333v-4Z"/><path fill-rule="evenodd" clip-rule="evenodd" d="M10.5 8H12a2 2 0 0 1 2 2v4h-1.333v-4A.667.667 0 0 0 12 9.333h-.831c.135-.533-.39-1.11-.669-1.333Zm-.5-.667c-.422 0-.821-.098-1.176-.272a3.95 3.95 0 0 0 .534-1.225A1.333 1.333 0 1 0 9.32 3.52a4.885 4.885 0 0 0-.495-1.247A2.667 2.667 0 1 1 10 7.333Z"/></symbol><symbol viewBox="0 0 16 16" id="viber" xmlns="http://www.w3.org/2000/svg"><path d="M8 1.335c-1.071.013-3.374.19-4.662 1.37-.958.948-1.292 2.35-1.331 4.084-.033 1.728-.072 4.973 3.058 5.856v1.346s-.02.538.337.648c.438.14.688-.275 1.105-.72l.778-.879c2.142.178 3.782-.232 3.97-.293.435-.139 2.883-.451 3.283-3.696.41-3.351-.2-5.463-1.301-6.418h-.007c-.332-.306-1.668-1.279-4.652-1.29 0 0-.222-.014-.578-.008Zm.037.942a7.02 7.02 0 0 1 .488.011c2.527.007 3.732.767 4.017 1.023.927.794 1.405 2.697 1.055 5.495-.332 2.713-2.317 2.885-2.685 3.002-.156.05-1.6.406-3.42.289 0 0-1.356 1.634-1.78 2.055-.067.074-.146.095-.196.085-.071-.018-.093-.107-.089-.229l.013-2.233c-2.655-.733-2.498-3.5-2.47-4.946.033-1.446.304-2.628 1.113-3.43 1.088-.982 3.043-1.115 3.953-1.122Zm.2 1.446a.166.166 0 1 0 0 .332 3.136 3.136 0 0 1 2.242.883c.606.588.9 1.378.912 2.411 0 .092.074.167.167.167V7.51a.167.167 0 0 0 .168-.165 3.588 3.588 0 0 0-1.009-2.646c-.66-.645-1.496-.977-2.48-.977Zm-2.198.382a.523.523 0 0 0-.342.067H5.69a2.61 2.61 0 0 0-.637.523 1.003 1.003 0 0 0-.256.525.71.71 0 0 0 .026.302l.01.006c.172.504.396.988.67 1.444a8.48 8.48 0 0 0 1.29 1.762l.015.022.024.017.015.018.017.015c.532.505 1.127.94 1.769 1.295.734.4 1.18.588 1.447.667v.004c.078.024.15.034.221.034.228-.016.444-.109.613-.262a2.53 2.53 0 0 0 .517-.638v-.004c.128-.241.085-.469-.1-.623-.37-.323-.77-.61-1.195-.857-.285-.155-.574-.061-.69.095l-.25.315c-.129.156-.361.134-.361.134l-.007.004C7.093 8.527 6.63 6.772 6.63 6.772s-.022-.239.139-.36l.312-.252c.15-.122.254-.41.094-.695a7.498 7.498 0 0 0-.856-1.194.475.475 0 0 0-.28-.167Zm2.486.495c-.221 0-.221.334.003.334A2.098 2.098 0 0 1 10 5.572 1.94 1.94 0 0 1 10.5 7a.168.168 0 0 0 .167.165l.007.009a.169.169 0 0 0 .167-.167c.015-.662-.191-1.218-.595-1.663C9.84 4.9 9.273 4.65 8.549 4.6h-.024Zm.274.898c-.228-.006-.236.335-.01.341.55.029.816.306.851.877a.166.166 0 0 0 .165.163h.007a.168.168 0 0 0 .16-.178c-.039-.744-.445-1.164-1.166-1.202H8.8Z"/></symbol><symbol viewBox="0 0 24 24" id="vk" xmlns="http://www.w3.org/2000/svg"><path d="M21.579 6.855c.14-.465 0-.806-.662-.806h-2.193c-.558 0-.813.295-.953.619 0 0-1.115 2.719-2.695 4.482-.51.513-.743.675-1.021.675-.139 0-.341-.162-.341-.627V6.855c0-.558-.161-.806-.626-.806H9.642c-.348 0-.558.258-.558.504 0 .528.79.65.871 2.138v3.228c0 .707-.127.836-.407.836-.743 0-2.551-2.73-3.624-5.853-.209-.607-.42-.852-.98-.852H2.752c-.627 0-.752.295-.752.619 0 .582.743 3.462 3.461 7.27 1.812 2.602 4.363 4.012 6.687 4.012 1.393 0 1.565-.313 1.565-.853v-1.966c0-.626.133-.752.574-.752.324 0 .882.164 2.183 1.417 1.486 1.486 1.732 2.153 2.567 2.153h2.192c.626 0 .939-.313.759-.931-.197-.615-.907-1.51-1.849-2.57-.512-.603-1.277-1.253-1.51-1.578-.325-.42-.231-.604 0-.976.001 0 2.672-3.761 2.95-5.04Z"/></symbol><symbol viewBox="0 0 16 16" id="whatsapp" xmlns="http://www.w3.org/2000/svg"><path fill-rule="evenodd" clip-rule="evenodd" d="M12.269 3.755A5.947 5.947 0 0 0 8.035 2 5.994 5.994 0 0 0 2.05 7.985a5.98 5.98 0 0 0 .799 2.992L2 14.077l3.173-.832c.877.477 1.86.728 2.86.728h.002a5.993 5.993 0 0 0 5.533-8.276 5.953 5.953 0 0 0-1.3-1.942Zm-4.234 9.208h-.002c-.89 0-1.765-.24-2.532-.694l-.181-.108-1.883.494.502-1.835-.118-.188a4.965 4.965 0 0 1-.76-2.647 4.982 4.982 0 0 1 6.88-4.597c.604.25 1.152.618 1.613 1.081a4.946 4.946 0 0 1 1.455 3.52 4.982 4.982 0 0 1-4.974 4.974Zm2.729-3.726c-.15-.075-.885-.436-1.022-.486-.137-.05-.236-.075-.336.074-.1.15-.387.486-.474.586-.087.1-.175.112-.324.038-.15-.075-.631-.233-1.203-.742a4.505 4.505 0 0 1-.832-1.036c-.087-.15-.009-.231.066-.306.068-.066.15-.174.224-.262.075-.087.1-.149.15-.249.05-.1.025-.187-.013-.262-.037-.075-.337-.811-.461-1.11-.121-.29-.244-.252-.336-.256a6.418 6.418 0 0 0-.286-.005.55.55 0 0 0-.4.186c-.137.15-.523.512-.523 1.248s.536 1.447.61 1.547c.075.1 1.055 1.61 2.555 2.258.358.154.636.246.853.315.358.114.684.098.942.06.287-.043.885-.362 1.01-.711.124-.35.124-.649.087-.711-.038-.063-.138-.101-.287-.176Z"/></symbol></svg>