<svg width="16" height="16" viewBox="0 0 16 16" fill="none" xmlns="http://www.w3.org/2000/svg">
<path d="M5.33366 10C4.96547 10 4.66699 10.2985 4.66699 10.6667C4.66699 11.0349 4.96547 11.3333 5.33366 11.3333C5.70185 11.3333 6.00033 11.0349 6.00033 10.6667C6.00033 10.2985 5.70185 10 5.33366 10Z" fill="black"/>
<path d="M7.33366 10.6667C7.33366 10.2985 7.63213 10 8.00033 10C8.36851 10 8.66699 10.2985 8.66699 10.6667C8.66699 11.0349 8.36851 11.3333 8.00033 11.3333C7.63213 11.3333 7.33366 11.0349 7.33366 10.6667Z" fill="black"/>
<path d="M10.667 10C10.2988 10 10.0003 10.2985 10.0003 10.6667C10.0003 11.0349 10.2988 11.3333 10.667 11.3333C11.0352 11.3333 11.3337 11.0349 11.3337 10.6667C11.3337 10.2985 11.0352 10 10.667 10Z" fill="black"/>
<path fill-rule="evenodd" clip-rule="evenodd" d="M2.66699 2C1.56242 2 0.666992 2.89543 0.666992 4V12C0.666992 13.1046 1.56242 14 2.66699 14H13.3337C14.4382 14 15.3337 13.1046 15.3337 12V4C15.3337 2.89543 14.4382 2 13.3337 2H2.66699ZM13.3337 3.33333H2.66699C2.2988 3.33333 2.00033 3.63181 2.00033 4V4.66667H14.0003V4C14.0003 3.63181 13.7018 3.33333 13.3337 3.33333ZM2.00033 12V6H14.0003V12C14.0003 12.3682 13.7018 12.6667 13.3337 12.6667H2.66699C2.2988 12.6667 2.00033 12.3682 2.00033 12Z" fill="black"/>
</svg>
