<svg width="16" height="16" viewBox="0 0 16 16" fill="none" xmlns="http://www.w3.org/2000/svg">
<g id="loadbar-doc">
<g id="loadbar-doc_2">
<path fill-rule="evenodd" clip-rule="evenodd" d="M11.75 2.55556H4.25C3.83579 2.55556 3.5 2.90378 3.5 3.33333V12.6667C3.5 13.0962 3.83579 13.4444 4.25 13.4444H11.75C12.1642 13.4444 12.5 13.0962 12.5 12.6667V3.33333C12.5 2.90378 12.1642 2.55556 11.75 2.55556ZM4.25 1C3.00736 1 2 2.04467 2 3.33333V12.6667C2 13.9553 3.00736 15 4.25 15H11.75C12.9926 15 14 13.9553 14 12.6667V3.33333C14 2.04467 12.9926 1 11.75 1H4.25Z" fill="#8C64D8"/>
<path d="M5 4.11111H11V5.66667H5V4.11111Z" fill="#8C64D8"/>
<path d="M5 7.22222H11V8.77778H5V7.22222Z" fill="#8C64D8"/>
<path d="M5 10.3333H8.75V11.8889H5V10.3333Z" fill="#8C64D8"/>
</g>
</g>
</svg>
