<svg width="16" height="16" viewBox="0 0 16 16" fill="none" xmlns="http://www.w3.org/2000/svg">
<path d="M7.33366 8.00016C7.33366 8.36835 7.63214 8.66683 8.00033 8.66683C8.36852 8.66683 8.66699 8.36835 8.66699 8.00016C8.66699 7.63197 8.36852 7.3335 8.00033 7.3335C7.63214 7.3335 7.33366 7.63197 7.33366 8.00016Z" stroke="#8C64D8" stroke-width="2" stroke-linecap="round" stroke-linejoin="round"/>
<path d="M11.9997 8.00016C11.9997 8.36835 12.2982 8.66683 12.6663 8.66683C13.0345 8.66683 13.333 8.36835 13.333 8.00016C13.333 7.63197 13.0345 7.3335 12.6663 7.3335C12.2982 7.3335 11.9997 7.63197 11.9997 8.00016Z" stroke="#8C64D8" stroke-width="2" stroke-linecap="round" stroke-linejoin="round"/>
<path d="M2.66667 8.00016C2.66667 8.36835 2.96514 8.66683 3.33333 8.66683C3.70152 8.66683 4 8.36835 4 8.00016C4 7.63197 3.70152 7.3335 3.33333 7.3335C2.96514 7.3335 2.66667 7.63197 2.66667 8.00016Z" stroke="#8C64D8" stroke-width="2" stroke-linecap="round" stroke-linejoin="round"/>
</svg>
