<svg width="16" height="16" viewBox="0 0 16 16" fill="none" xmlns="http://www.w3.org/2000/svg">
<path d="M11.3337 10H12.667V11.3333H11.3337V10Z" fill="black"/>
<path d="M12.667 7.33333H11.3337V8.66667H12.667V7.33333Z" fill="black"/>
<path fill-rule="evenodd" clip-rule="evenodd" d="M8.66699 4.66667H15.3337V14H0.666992V2H8.66699V4.66667ZM5.33366 3.33333H7.33366V4.66667H5.33366V3.33333ZM7.33366 12.6667V11.3333H5.33366V12.6667H7.33366ZM7.33366 10V8.66667H5.33366V10H7.33366ZM7.33366 7.33333V6H5.33366V7.33333H7.33366ZM14.0003 12.6667V6H8.66699V7.33333H10.0003V8.66667H8.66699V10H10.0003V11.3333H8.66699V12.6667H14.0003ZM2.00033 12.6667V11.3333H4.00033V12.6667H2.00033ZM2.00033 10H4.00033V8.66667H2.00033V10ZM4.00033 7.33333V6H2.00033V7.33333H4.00033ZM2.00033 4.66667H4.00033V3.33333H2.00033V4.66667Z" fill="black"/>
</svg>
