<svg width="16" height="16" viewBox="0 0 16 16" fill="none" xmlns="http://www.w3.org/2000/svg">
<path d="M8.76367 7.36661L8.64746 6.03835L10.2305 5.89985C9.63112 5.32215 8.81587 4.96687 7.91764 4.96687C6.07669 4.96687 4.58431 6.45925 4.58431 8.3002C4.58431 10.1411 6.07669 11.6335 7.91764 11.6335C9.13149 11.6335 10.1938 10.9847 10.7767 10.015L12.1118 10.3487C11.3531 11.8992 9.76007 12.9669 7.91764 12.9669C5.34031 12.9669 3.25098 10.8775 3.25098 8.3002C3.25098 5.72287 5.34031 3.63353 7.91764 3.63353C9.21527 3.63353 10.3892 4.16316 11.2351 5.01804L11.0716 3.14941L12.3998 3.0332L12.7485 7.01798L8.76367 7.36661Z" fill="#8C64D8"/>
</svg>
