<svg width="16" height="16" viewBox="0 0 16 16" fill="none" xmlns="http://www.w3.org/2000/svg">
<path fill-rule="evenodd" clip-rule="evenodd" d="M8.66634 11.3333H13.333C14.4376 11.3333 15.333 10.4379 15.333 9.33333V4C15.333 2.89543 14.4376 2 13.333 2H2.66634C1.56177 2 0.666342 2.89543 0.666342 4V9.33333C0.666342 10.4379 1.56177 11.3333 2.66634 11.3333H7.33301V12.6667H5.33301C4.96482 12.6667 4.66634 12.9651 4.66634 13.3333C4.66634 13.7015 4.96482 14 5.33301 14H10.6663C11.0345 14 11.333 13.7015 11.333 13.3333C11.333 12.9651 11.0345 12.6667 10.6663 12.6667H8.66634V11.3333ZM13.333 3.33333H2.66634C2.29815 3.33333 1.99968 3.63181 1.99968 4V9.33333C1.99968 9.70152 2.29815 10 2.66634 10H13.333C13.7012 10 13.9997 9.70152 13.9997 9.33333V4C13.9997 3.63181 13.7012 3.33333 13.333 3.33333Z" fill="black"/>
</svg>
