<svg width="16" height="16" viewBox="0 0 16 16" fill="none" xmlns="http://www.w3.org/2000/svg">
<path fill-rule="evenodd" clip-rule="evenodd" d="M3.78698 9.62158C2.15783 7.52926 2.30498 4.50215 4.22844 2.5787C6.31123 0.495902 9.68811 0.495903 11.7709 2.5787C13.8537 4.66149 13.8537 8.03837 11.7709 10.1212C9.84746 12.0446 6.82035 12.1918 4.72803 10.5626C4.719 10.5728 4.7096 10.5828 4.69984 10.5926L1.87142 13.421C1.61107 13.6814 1.18896 13.6814 0.928606 13.421C0.668257 13.1607 0.668257 12.7385 0.928606 12.4782L3.75703 9.64977C3.7668 9.64001 3.77678 9.63061 3.78698 9.62158ZM5.17125 3.52151C3.60915 5.0836 3.60915 7.61626 5.17125 9.17836C6.73334 10.7405 9.266 10.7405 10.8281 9.17836C12.3902 7.61626 12.3902 5.0836 10.8281 3.52151C9.266 1.95941 6.73334 1.95941 5.17125 3.52151Z" fill="black"/>
</svg>
