<svg width="16" height="16" viewBox="0 0 16 16" fill="none" xmlns="http://www.w3.org/2000/svg">
<g clip-path="url(#clip0_2140_5372)">
<path d="M9.20558 15.463C8.97427 15.4629 8.74575 15.4125 8.53586 15.3153C8.32597 15.2181 8.13974 15.0764 7.99008 14.9L6.77858 13.4865C6.43013 13.0811 6.20932 12.5817 6.14393 12.0511C6.07854 11.5205 6.17149 10.9824 6.41108 10.5045L7.32808 8.671L5.49458 9.58801C5.01674 9.82786 4.4786 9.92094 3.94796 9.85555C3.41731 9.79015 2.91789 9.56919 2.51258 9.2205L1.10008 8.01C0.889475 7.82948 0.729153 7.59755 0.63469 7.33674C0.540227 7.07594 0.514836 6.79514 0.560985 6.52162C0.607133 6.2481 0.723251 5.99117 0.898055 5.7758C1.07286 5.56043 1.3004 5.39394 1.55858 5.2925L13.3881 0.642504C13.6633 0.534355 13.9642 0.508958 14.2536 0.569433C14.5431 0.629909 14.8086 0.773623 15.0176 0.98292C15.2265 1.19222 15.3697 1.45798 15.4297 1.74757C15.4896 2.03716 15.4637 2.33795 15.3551 2.613L10.7051 14.4425C10.6047 14.7013 10.4385 14.9294 10.2229 15.1043C10.0074 15.2793 9.74999 15.395 9.47608 15.44C9.38671 15.4552 9.29622 15.4629 9.20558 15.463ZM7.85908 7.3785C7.989 7.37864 8.11673 7.41195 8.23017 7.47528C8.34362 7.53861 8.43901 7.62985 8.50731 7.74037C8.57562 7.85089 8.61457 7.97702 8.62048 8.1068C8.62639 8.23659 8.59906 8.36574 8.54108 8.482L7.30558 10.9525C7.15408 11.2544 7.09527 11.5944 7.13655 11.9296C7.17784 12.2648 7.31736 12.5804 7.53758 12.8365L8.75008 14.25C8.81827 14.3298 8.90596 14.3905 9.00461 14.4263C9.10325 14.4621 9.20949 14.4717 9.31296 14.4542C9.41643 14.4368 9.51362 14.3928 9.59504 14.3266C9.67646 14.2604 9.73935 14.1742 9.77758 14.0765L14.4276 2.247C14.4644 2.15316 14.4731 2.0506 14.4525 1.95191C14.4319 1.85321 14.383 1.76267 14.3117 1.69138C14.2404 1.62009 14.1499 1.57115 14.0512 1.55057C13.9525 1.52998 13.8499 1.53865 13.7561 1.5755L1.92658 6.2255C1.82925 6.26364 1.7434 6.32624 1.67735 6.40726C1.61129 6.48829 1.56726 6.58498 1.54951 6.688C1.53177 6.79102 1.5409 6.89687 1.57604 6.99532C1.61117 7.09378 1.67112 7.1815 1.75008 7.25L3.16358 8.462C3.41973 8.68216 3.73526 8.82165 4.07049 8.86293C4.40572 8.90421 4.74567 8.84544 5.04758 8.69401L7.51808 7.4585C7.62401 7.40579 7.74075 7.3784 7.85908 7.3785Z" fill="#8C64D8"/>
</g>
<defs>
<clipPath id="clip0_2140_5372">
<rect width="16" height="16" fill="white"/>
</clipPath>
</defs>
</svg>
