<svg width="16" height="16" viewBox="0 0 16 16" fill="none" xmlns="http://www.w3.org/2000/svg">
<path fill-rule="evenodd" clip-rule="evenodd" d="M3.33333 4.66667C3.33333 6.13943 4.52724 7.33333 6 7.33333C7.47276 7.33333 8.66667 6.13943 8.66667 4.66667C8.66667 3.19391 7.47276 2 6 2C4.52724 2 3.33333 3.19391 3.33333 4.66667ZM4.66667 4.66667C4.66667 5.40305 5.26362 6 6 6C6.73638 6 7.33333 5.40305 7.33333 4.66667C7.33333 3.93029 6.73638 3.33333 6 3.33333C5.26362 3.33333 4.66667 3.93029 4.66667 4.66667Z" fill="black"/>
<path d="M3.33333 10C3.33333 9.63181 3.63181 9.33333 4 9.33333H8C8.36819 9.33333 8.66667 9.63181 8.66667 10V14H10V10C10 8.89543 9.10457 8 8 8H4C2.89543 8 2 8.89543 2 10V14H3.33333V10Z" fill="black"/>
<path fill-rule="evenodd" clip-rule="evenodd" d="M10.5 8H12C13.1046 8 14 8.89543 14 10V14H12.6667V10C12.6667 9.63181 12.3682 9.33333 12 9.33333H11.169C11.3042 8.8 10.7793 8.22222 10.5 8Z" fill="black"/>
<path fill-rule="evenodd" clip-rule="evenodd" d="M10 7.33333C9.57796 7.33333 9.17882 7.23529 8.82412 7.06074C9.08578 6.66186 9.25654 6.24789 9.35845 5.83579C9.54879 5.94046 9.76744 6 10 6C10.7364 6 11.3333 5.40305 11.3333 4.66667C11.3333 3.93029 10.7364 3.33333 10 3.33333C9.75144 3.33333 9.51876 3.40135 9.31957 3.51978C9.18663 2.99594 8.99379 2.55889 8.82412 2.27259C9.17882 2.09804 9.57796 2 10 2C11.4728 2 12.6667 3.19391 12.6667 4.66667C12.6667 6.13943 11.4728 7.33333 10 7.33333Z" fill="black"/>
</svg>
