<svg width="16" height="16" viewBox="0 0 16 16" fill="none" xmlns="http://www.w3.org/2000/svg">
<path fill-rule="evenodd" clip-rule="evenodd" d="M5.33333 4.66667C5.33333 6.13943 6.52724 7.33333 8 7.33333C9.47276 7.33333 10.6667 6.13943 10.6667 4.66667C10.6667 3.19391 9.47276 2 8 2C6.52724 2 5.33333 3.19391 5.33333 4.66667ZM6.66667 4.66667C6.66667 5.40305 7.26362 6 8 6C8.73638 6 9.33333 5.40305 9.33333 4.66667C9.33333 3.93029 8.73638 3.33333 8 3.33333C7.26362 3.33333 6.66667 3.93029 6.66667 4.66667Z" fill="#8C64D8"/>
<path d="M5.33333 10C5.33333 9.63181 5.63181 9.33333 6 9.33333H10C10.3682 9.33333 10.6667 9.63181 10.6667 10V14H12V10C12 8.89543 11.1046 8 10 8H6C4.89543 8 4 8.89543 4 10V14H5.33333V10Z" fill="#8C64D8"/>
</svg>
