<svg width="12" height="12" viewBox="0 0 12 12" fill="none" xmlns="http://www.w3.org/2000/svg">
<g clip-path="url(#clip0_2288_1812)">
<path d="M6 12C9.31371 12 12 9.31371 12 6C12 2.68629 9.31371 0 6 0C2.68629 0 0 2.68629 0 6C0 9.31371 2.68629 12 6 12Z" fill="#FF2147"/>
<path d="M6.00081 7.2C5.78352 7.19999 5.57467 7.1159 5.418 6.96535C5.26133 6.81479 5.16899 6.60945 5.16034 6.39234L5.04948 3.59297C5.04503 3.47981 5.06347 3.36693 5.10371 3.26107C5.14394 3.15522 5.20513 3.05858 5.28361 2.97694C5.36209 2.89531 5.45625 2.83036 5.56044 2.786C5.66463 2.74163 5.7767 2.71876 5.88995 2.71875H6.11167C6.22491 2.71876 6.33698 2.74163 6.44117 2.786C6.54536 2.83036 6.63952 2.89531 6.718 2.97694C6.79648 3.05858 6.85767 3.15522 6.89791 3.26107C6.93814 3.36693 6.95658 3.47981 6.95213 3.59297L6.84127 6.39234C6.83262 6.60945 6.74028 6.81479 6.58361 6.96535C6.42694 7.1159 6.21809 7.19999 6.00081 7.2Z" fill="white"/>
<path d="M6.83969 8.44133C6.83969 7.97754 6.46371 7.60156 5.99992 7.60156C5.53613 7.60156 5.16016 7.97754 5.16016 8.44133C5.16016 8.90512 5.53613 9.28109 5.99992 9.28109C6.46371 9.28109 6.83969 8.90512 6.83969 8.44133Z" fill="white"/>
</g>
<defs>
<clipPath id="clip0_2288_1812">
<rect width="12" height="12" fill="white"/>
</clipPath>
</defs>
</svg>
