<svg width="12" height="12" viewBox="0 0 12 12" fill="none" xmlns="http://www.w3.org/2000/svg">
<path d="M3.5 9H8.5V8H3.5V9Z" fill="#8C64D8"/>
<path d="M8.5 7H3.5V6H8.5V7Z" fill="#8C64D8"/>
<path d="M3.5 5H5.5V4H3.5V5Z" fill="#8C64D8"/>
<path fill-rule="evenodd" clip-rule="evenodd" d="M3 1C2.17157 1 1.5 1.67157 1.5 2.5V9.5C1.5 10.3284 2.17157 11 3 11H9C9.82843 11 10.5 10.3284 10.5 9.5V4.5C10.5 2.567 8.933 1 7 1H3ZM3 2H6.5V4.5H9.5V9.5C9.5 9.77614 9.27614 10 9 10H3C2.72386 10 2.5 9.77614 2.5 9.5V2.5C2.5 2.22386 2.72386 2 3 2ZM7.5 2.05001C8.30566 2.21355 8.97064 2.76453 9.29198 3.5H7.5V2.05001Z" fill="#8C64D8"/>
</svg>
