<svg width="1920" height="668" viewBox="0 0 1920 668" fill="none" xmlns="http://www.w3.org/2000/svg">
<path d="M738.831 431.199L761.819 421.371L774.65 451.385L742.329 455.953L738.831 431.199ZM644.075 209.546L621.088 219.373L661.827 191.942L644.075 209.546ZM930.526 498.392L953.746 489.127L912.775 515.996L930.526 498.392ZM738.831 18.0001L715.612 27.2656L756.192 0.0110587L738.831 18.0001ZM1185.97 449.524L1207.99 437.672L1168.61 467.513L1185.97 449.524ZM969.826 48.1064L947.814 59.9589L985.036 28.2661L969.826 48.1064ZM1273.74 281.103L1276.92 305.9L1266.7 307.209L1258.53 300.944L1273.74 281.103ZM715.844 441.026L621.088 219.373L667.063 199.719L761.819 421.371L715.844 441.026ZM661.827 191.942L948.277 480.789L912.775 515.996L626.324 227.15L661.827 191.942ZM907.306 507.658L715.612 27.2656L762.051 8.73457L953.746 489.127L907.306 507.658ZM756.192 0.0110587L1203.33 431.535L1168.61 467.513L721.47 35.9891L756.192 0.0110587ZM1163.96 461.377L947.814 59.9589L991.837 36.254L1207.99 437.672L1163.96 461.377ZM985.036 28.2661L1288.95 261.263L1258.53 300.944L954.615 67.9468L985.036 28.2661ZM1270.56 256.306L2407.82 110.576L2414.18 160.17L1276.92 305.9L1270.56 256.306ZM742.329 455.953L-756.502 667.754L-763.498 618.246L735.333 406.445L742.329 455.953Z" fill="#DAEF14"/>
</svg>
